<svg id="Layer_1" data-name="Layer 1" xmlns="http://www.w3.org/2000/svg" viewBox="0 0 160 160"><defs><style>.cls-1{fill:#80027b;}.cls-2{fill:#b80eb2;}</style></defs><path class="cls-1" d="M80,18.7A60.1,60.1,0,1,1,19.9,78.8,60.15,60.15,0,0,1,80,18.7m0-6.6a66.8,66.8,0,1,0,66.8,66.8A66.79,66.79,0,0,0,80,12.1Z"/><path class="cls-2" d="M61,109.2H99a13.55,13.55,0,0,0,2-.2,6,6,0,0,0,1.9-.6l1.8-.9a6.39,6.39,0,0,0,1.5-1.3,10.1,10.1,0,0,0,1.3-1.6,6.08,6.08,0,0,0,.9-1.8c.2-.7.4-1.3.6-1.9a13.55,13.55,0,0,0,.2-2v-38a13.55,13.55,0,0,0-.2-2,6,6,0,0,0-.6-1.9l-.9-1.8a10.1,10.1,0,0,0-1.3-1.6,17.38,17.38,0,0,0-1.5-1.3,6.08,6.08,0,0,0-1.8-.9c-.7-.2-1.3-.5-1.9-.6a13.55,13.55,0,0,0-2-.2H61a13.55,13.55,0,0,0-2,.2,6,6,0,0,0-1.9.6l-1.8.9a10,10,0,0,0-2.9,2.9,6.08,6.08,0,0,0-.9,1.8,13.89,13.89,0,0,0-.6,1.9,13.55,13.55,0,0,0-.2,2v38a13.55,13.55,0,0,0,.2,2,6,6,0,0,0,.6,1.9l.9,1.8a10,10,0,0,0,2.9,2.9,6.08,6.08,0,0,0,1.8.9,7,7,0,0,0,1.9.6A12.31,12.31,0,0,0,61,109.2ZM59.1,76.8a1.88,1.88,0,0,1,.2-.8,1.7,1.7,0,0,1,.6-.6L78.6,64.6a2.65,2.65,0,0,1,2.8,0l18.7,10.8a1.7,1.7,0,0,1,.6.6,1.88,1.88,0,0,1,.2.8v4.6a1.88,1.88,0,0,1-.2.8c-.1.3-.3.4-.6.6a1.2,1.2,0,0,1-.8.2,1.88,1.88,0,0,1-.8-.2L81.5,73a2.65,2.65,0,0,0-2.8,0l-17,9.8a1.7,1.7,0,0,1-1.6,0,1.7,1.7,0,0,1-.6-.6,1.2,1.2,0,0,1-.2-.8V76.8Zm0,12.5a1.88,1.88,0,0,1,.2-.8,1.7,1.7,0,0,1,.6-.6L78.6,77.1a2.65,2.65,0,0,1,2.8,0l18.7,10.8a1.7,1.7,0,0,1,.6.6,1.88,1.88,0,0,1,.2.8v4.6a1.88,1.88,0,0,1-.2.8c-.1.3-.3.4-.6.6a1.7,1.7,0,0,1-1.6,0l-17-9.8a2.65,2.65,0,0,0-2.8,0l-17,9.8a1.7,1.7,0,0,1-1.6,0,1.7,1.7,0,0,1-.6-.6,1.2,1.2,0,0,1-.2-.8V89.3Z"/></svg>