<svg id="Layer_1" data-name="Layer 1" xmlns="http://www.w3.org/2000/svg" viewBox="0 0 160 160"><defs><style>.cls-1{fill:#80027b;}.cls-2{fill:#b80eb2;}</style></defs><path class="cls-1" d="M80,18.7A60.1,60.1,0,1,1,19.9,78.8,60.15,60.15,0,0,1,80,18.7m0-6.6a66.8,66.8,0,1,0,66.8,66.8A66.79,66.79,0,0,0,80,12.1Z"/><path class="cls-2" d="M66.9,60.2a4.22,4.22,0,0,0,1.3,2.9,13,13,0,0,0,6.2,3.3,24.11,24.11,0,0,0,6.7.9,24.63,24.63,0,0,0,6.7-.9A13.93,13.93,0,0,0,94,63.1a4.05,4.05,0,0,0,1.3-2.9V57.8l-.1.1-.1.1-.2.2a.1.1,0,0,0-.1.1c-.1.1-.2.1-.2.2a.1.1,0,0,0-.1.1c-.1.1-.2.1-.2.2a.1.1,0,0,0-.1.1c-.1.1-.2.2-.3.2a.1.1,0,0,0-.1.1c-.1.1-.3.2-.4.3a.1.1,0,0,0-.1.1c-.1.1-.2.1-.4.2s-.1.1-.2.1-.2.1-.3.2-.1.1-.2.1a.37.37,0,0,1-.3.1c-.1,0-.1.1-.2.1a.37.37,0,0,1-.3.1c-.1,0-.1.1-.2.1a.37.37,0,0,1-.3.1c-.1,0-.1.1-.2.1s-.2.1-.3.1-.1.1-.2.1-.2.1-.3.1-.1.1-.2.1-.2.1-.4.1-.1,0-.2.1-.4.1-.6.2a30.06,30.06,0,0,1-14.6,0c-.2-.1-.4-.1-.6-.2s-.1,0-.2-.1-.2-.1-.4-.1-.1-.1-.2-.1-.2-.1-.3-.1-.1-.1-.2-.1-.2-.1-.3-.1-.1-.1-.2-.1-.2-.1-.3-.1-.1-.1-.2-.1a.37.37,0,0,0-.3-.1c-.1,0-.1-.1-.2-.1a.37.37,0,0,0-.3-.1c-.1,0-.1-.1-.2-.1a.37.37,0,0,0-.3-.1c-.1,0-.1-.1-.2-.1s-.2-.1-.3-.2a.1.1,0,0,1-.1-.1c-.1-.1-.3-.2-.4-.3a.1.1,0,0,1-.1-.1c-.1-.1-.2-.1-.3-.2a.1.1,0,0,1-.1-.1c-.1-.1-.2-.1-.2-.2s-.1-.1-.2-.1l-.2-.2-.1-.1-.2-.2-.1-.1-.1-.1-.2,2.3Z"/><path class="cls-2" d="M74.4,59a24.11,24.11,0,0,0,6.7.9,24.63,24.63,0,0,0,6.7-.9A13.93,13.93,0,0,0,94,55.7a4.05,4.05,0,0,0,1.3-2.9c0-3.8-6.5-7.1-14.2-7.1s-14.2,3.2-14.2,7.1a4.22,4.22,0,0,0,1.3,2.9A13,13,0,0,0,74.4,59Z"/><path class="cls-2" d="M72.8,78.7v2c.1,0,.1,0,.1.1.2.1.3.1.5.2s.1.1.2.1a1.85,1.85,0,0,0,.7.2h.1a23.6,23.6,0,0,0,6.7.9,24.63,24.63,0,0,0,6.7-.9h.1a13.63,13.63,0,0,0,4.7-2.1A9.83,9.83,0,0,0,94.1,78a4.05,4.05,0,0,0,1.3-2.9V72.7l-.1.1-.2.2c-.1.1-.1.1-.2.1l-.2.2c-.1.1-.1.1-.2.1s-.1.1-.2.1-.1.1-.2.1-.1.1-.2.1-.1.1-.2.1a.76.76,0,0,1-.4.2c-.1.1-.1.1-.2.1a.31.31,0,0,1-.2.1c-.1,0-.1.1-.2.1a.31.31,0,0,1-.2.1c-.1,0-.1.1-.2.1a.31.31,0,0,1-.2.1l-.2.1a.35.35,0,0,0-.2.1l-.2.1a.35.35,0,0,0-.2.1c-.1,0-.2.1-.3.1a.35.35,0,0,0-.2.1c-.1,0-.2.1-.3.1a.35.35,0,0,0-.2.1c-.1,0-.2.1-.3.1s-.1.1-.2.1a.6.6,0,0,1-.4.1h-.1c-.2.1-.4.1-.6.2l-1.3.3a27,27,0,0,1-4.1.6c-.6,0-1.3.1-1.9.1a12.1,12.1,0,0,1-1.9-.1c-1.4-.1-2.7-.3-4-.5L74.1,76H74a2.35,2.35,0,0,0-.8-.2c-.1,0-.1,0-.2-.1-.3-.1-.5-.2-.8-.3h-.1A9.76,9.76,0,0,1,72.8,78.7Z"/><path class="cls-2" d="M95.3,65.2l-.1.1-.1.1-.2.2-.1.1-.2.2c-.1,0-.1.1-.2.1s-.2.1-.2.2a.1.1,0,0,0-.1.1c-.1.1-.2.1-.3.2l-.1.1c-.1.1-.3.2-.4.3l-.1.1c-.1.1-.2.1-.3.2s-.1.1-.2.1-.2.1-.3.2-.1.1-.2.1a.37.37,0,0,1-.3.1c-.1,0-.1.1-.2.1a.37.37,0,0,1-.3.1c-.1,0-.1.1-.2.1a.37.37,0,0,1-.3.1c-.1,0-.1.1-.2.1s-.2.1-.3.1-.1.1-.2.1-.2.1-.3.1-.1.1-.2.1-.2.1-.4.1-.1,0-.2.1-.4.1-.6.2a30.06,30.06,0,0,1-14.6,0c-.2-.1-.4-.1-.6-.2s-.1,0-.2-.1-.2-.1-.4-.1-.1-.1-.2-.1-.2-.1-.3-.1-.1-.1-.2-.1-.2-.1-.3-.1-.1-.1-.2-.1-.2-.1-.3-.1-.1-.1-.2-.1a.37.37,0,0,0-.3-.1c-.1,0-.1-.1-.2-.1a.37.37,0,0,0-.3-.1c-.1,0-.1-.1-.2-.1a.37.37,0,0,0-.3-.1c-.1,0-.1-.1-.2-.1s-.2-.1-.3-.2a.1.1,0,0,1-.1-.1c-.1-.1-.3-.2-.4-.3l-.1-.1c-.1-.1-.2-.1-.3-.2s-.1-.1-.2-.1-.2-.1-.2-.2-.1-.1-.2-.1l-.2-.2c-.1-.1-.1-.1-.2-.1s-.1-.1-.2-.2l-.1-.1-.1-.1v2.4a3.16,3.16,0,0,0,.8,2.2c.2.2.3.5.5.7a11.61,11.61,0,0,0,4.9,2.9,6.47,6.47,0,0,0,1.3.4l1.3.3c1.1.2,2.3.4,3.5.5.6,0,1.2.1,1.9.1a12.1,12.1,0,0,0,1.9-.1,29.09,29.09,0,0,0,3.1-.4h.2l1.5-.3,1.8-.6a11.57,11.57,0,0,0,4.5-2.8c.2-.2.3-.4.5-.6a4.26,4.26,0,0,0,.8-2.3l-.1-2.5Z"/><path class="cls-2" d="M87.5,91.2c-.3.1-.5.1-.8.2-.1,0-.2,0-.2.1-.2,0-.4.1-.6.1a.37.37,0,0,0-.3.1,4.33,4.33,0,0,0-.5.1.76.76,0,0,0-.4.1c-.2,0-.3.1-.5.1h-.4a.75.75,0,0,0-.5.1H81.1a28.63,28.63,0,0,1-7.3-.9l-.9-.3h-.1v4.8c.1,0,.1,0,.1.1.2.1.4.1.5.2s.1.1.2.1a1.88,1.88,0,0,0,.8.2,24.11,24.11,0,0,0,6.7.9h3a.9.9,0,0,0,.5-.1A.76.76,0,0,0,85,97c.2,0,.3-.1.5-.1s.2-.1.4-.1.3-.1.4-.1.2-.1.3-.1.3-.1.4-.1.2-.1.4-.1.2-.1.3-.1V91.2Z"/><path class="cls-2" d="M72.8,88.1c.1,0,.1,0,.1.1.2.1.3.1.5.2s.1.1.2.1a1.88,1.88,0,0,0,.8.2,24.11,24.11,0,0,0,6.7.9h3a.9.9,0,0,0,.5-.1.76.76,0,0,0,.4-.1c.2,0,.3-.1.5-.1s.2-.1.3-.1.3-.1.4-.1.2-.1.3-.1.3-.1.4-.1.2-.1.3-.1.2-.1.3-.1V86.1a6.87,6.87,0,0,1,.5-2.4c-.1,0-.2.1-.3.1s-.3.1-.4.1-.3.1-.5.1-.3.1-.4.1-.3.1-.5.1-.3.1-.4.1-.3.1-.5.1a.6.6,0,0,0-.4.1.9.9,0,0,0-.5.1,9.69,9.69,0,0,1-.9.2H81a28.63,28.63,0,0,1-7.3-.9h0l-.9-.3h-.1l.1,4.5Z"/><path class="cls-2" d="M88,103.3a5.34,5.34,0,0,1-.5-2.5V98.5c-.3.1-.5.1-.8.2-.1,0-.2,0-.2.1-.2,0-.4.1-.6.1a.37.37,0,0,0-.3.1,4.33,4.33,0,0,0-.5.1.76.76,0,0,0-.4.1c-.2,0-.3.1-.5.1h-.3a.75.75,0,0,0-.5.1H81.2a28.63,28.63,0,0,1-7.3-.9l-.9-.3h-.1V101a6.28,6.28,0,0,1-.3,1.9,23.52,23.52,0,0,0,8.6,1.5A30.19,30.19,0,0,0,88,103.3Z"/><path class="cls-2" d="M43.2,81.6a13,13,0,0,0,6.2,3.3,24.11,24.11,0,0,0,6.7.9c.9,0,1.8-.1,2.6-.1a27,27,0,0,0,4.1-.7,18.52,18.52,0,0,0,4-1.6A9.84,9.84,0,0,0,69,81.7a4.05,4.05,0,0,0,1.3-2.9c0-3.8-6.5-7.1-14.2-7.1s-14.2,3.2-14.2,7.1v.4A7.18,7.18,0,0,0,43.2,81.6Z"/><path class="cls-2" d="M69.9,98.9c-.1.1-.1.1-.2.1l-.2.2c-.1,0-.1.1-.2.1s-.2.1-.2.2a.1.1,0,0,0-.1.1c-.1.1-.2.1-.3.2a.1.1,0,0,0-.1.1c-.1.1-.3.2-.4.3a.1.1,0,0,0-.1.1c-.1.1-.2.1-.3.2s-.1.1-.2.1-.2.1-.3.2-.1.1-.2.1a.37.37,0,0,1-.3.1c-.1,0-.1.1-.2.1a.37.37,0,0,1-.3.1c-.1,0-.1.1-.2.1a.37.37,0,0,1-.3.1c-.1,0-.1.1-.2.1s-.2.1-.3.1-.1.1-.2.1-.2.1-.3.1-.1.1-.2.1-.2.1-.4.1-.1,0-.2.1-.4.1-.6.2a30.06,30.06,0,0,1-14.6,0c-.2-.1-.4-.1-.6-.2s-.1,0-.2-.1-.2-.1-.3-.1-.1-.1-.2-.1-.2-.1-.3-.1a.35.35,0,0,1-.2-.1c-.1,0-.2-.1-.3-.1a.35.35,0,0,1-.2-.1c-.1,0-.2-.1-.3-.1s-.1-.1-.2-.1a.37.37,0,0,0-.3-.1c-.1,0-.1-.1-.2-.1a.37.37,0,0,0-.3-.1c-.1,0-.1-.1-.2-.1a.37.37,0,0,0-.3-.1c-.1,0-.1-.1-.2-.1s-.2-.1-.3-.2a.1.1,0,0,1-.1-.1c-.1-.1-.3-.2-.4-.3a.1.1,0,0,1-.1-.1c-.1-.1-.2-.1-.3-.2a.1.1,0,0,1-.1-.1c-.1-.1-.2-.1-.2-.2s-.1-.1-.2-.1l-.2-.2c-.1-.1-.1-.1-.2-.1s-.1-.1-.2-.2l-.1-.1-.1-.1V101a4.22,4.22,0,0,0,1.3,2.9,13,13,0,0,0,6.2,3.3h.1a23.6,23.6,0,0,0,6.7.9,24.63,24.63,0,0,0,6.7-.9h.1a13,13,0,0,0,6.2-3.3,4.05,4.05,0,0,0,1.3-2.9V98.6l-.1.1-.1.1C70,98.8,70,98.8,69.9,98.9Z"/><path class="cls-2" d="M41.9,86.1A4.22,4.22,0,0,0,43.2,89a13,13,0,0,0,6.2,3.3,24.11,24.11,0,0,0,6.7.9c.9,0,1.8-.1,2.6-.1a27,27,0,0,0,4.1-.7,15.14,15.14,0,0,0,4.8-2.1A6.39,6.39,0,0,0,69.1,89a4.05,4.05,0,0,0,1.3-2.9V83.7l-.1.1-.1.1-.2.2a.1.1,0,0,0-.1.1l-.2.2a.1.1,0,0,0-.1.1c-.1.1-.2.1-.2.2a.1.1,0,0,0-.1.1c-.1.1-.2.1-.3.2a.1.1,0,0,0-.1.1c-.1.1-.3.2-.4.3l-.1.1c-.1.1-.2.1-.3.2s-.1.1-.2.1-.2.1-.3.2-.1.1-.2.1a.37.37,0,0,1-.3.1c-.1,0-.1.1-.2.1a.37.37,0,0,1-.3.1c-.1,0-.1.1-.2.1s-.2.1-.3.1-.1.1-.2.1-.2.1-.3.1-.1.1-.2.1-.2.1-.3.1-.1.1-.2.1-.2.1-.4.1-.1,0-.2.1-.4.1-.6.2a30.06,30.06,0,0,1-14.6,0c-.2-.1-.4-.1-.6-.2s-.1,0-.2-.1-.2-.1-.4-.1-.1-.1-.2-.1-.2-.1-.3-.1-.1-.1-.2-.1-.2-.1-.3-.1-.1-.1-.2-.1-.2-.1-.3-.1-.1-.1-.2-.1a.37.37,0,0,0-.3-.1c-.1,0-.1-.1-.2-.1a.37.37,0,0,0-.3-.1c-.1,0-.1-.1-.2-.1s-.2-.1-.3-.2-.1-.1-.2-.1-.2-.1-.3-.2l-.1-.1c-.1-.1-.3-.2-.4-.3a.1.1,0,0,1-.1-.1c-.1-.1-.2-.1-.3-.2a.1.1,0,0,1-.1-.1c-.1-.1-.2-.1-.2-.2a.1.1,0,0,1-.1-.1l-.2-.2c-.1-.1-.1-.1-.2-.1l-.2-.2-.1-.1-.1-.1-.4,2.4Z"/><path class="cls-2" d="M69.1,96.3a4.05,4.05,0,0,0,1.3-2.9V91l-.1.1-.1.1-.2.2c-.1.1-.1.1-.2.1l-.2.2c-.1,0-.1.1-.2.1s-.2.1-.2.2a.1.1,0,0,0-.1.1c-.1.1-.2.1-.3.2a.1.1,0,0,0-.1.1c-.1.1-.3.2-.4.3a.1.1,0,0,0-.1.1c-.1.1-.2.1-.3.2s-.1.1-.2.1-.2.1-.3.2-.1.1-.2.1a.37.37,0,0,1-.3.1c-.1,0-.1.1-.2.1a.37.37,0,0,1-.3.1c-.1,0-.1.1-.2.1a.37.37,0,0,1-.3.1c-.1,0-.1.1-.2.1s-.2.1-.3.1-.1.1-.2.1-.2.1-.3.1-.1.1-.2.1-.2.1-.4.1-.1,0-.2.1-.4.1-.6.2a30.06,30.06,0,0,1-14.6,0c-.2-.1-.4-.1-.6-.2s-.1,0-.2-.1-.2-.1-.4-.1-.1-.1-.2-.1-.2-.1-.3-.1-.1-.1-.2-.1-.2-.1-.3-.1-.1-.1-.2-.1-.2-.1-.3-.1-.1-.1-.2-.1a.37.37,0,0,0-.3-.1c-.1,0-.1-.1-.2-.1a.37.37,0,0,0-.3-.1c-.1,0-.1-.1-.2-.1s-.2-.1-.3-.2-.1-.1-.2-.1-.2-.1-.3-.2a.1.1,0,0,1-.1-.1c-.1-.1-.3-.2-.4-.3l-.1-.1c-.1-.1-.2-.1-.3-.2a.1.1,0,0,1-.1-.1c-.1-.1-.2-.1-.2-.2s-.1-.1-.2-.1l-.2-.2c-.1-.1-.1-.1-.2-.1l-.2-.2c-.1-.1-.1-.1-.2-.1l-.1-.1v2.4a4.22,4.22,0,0,0,1.3,2.9,13,13,0,0,0,6.2,3.3,24.11,24.11,0,0,0,6.7.9c.9,0,1.8-.1,2.6-.1a27,27,0,0,0,4.1-.7,15.14,15.14,0,0,0,4.8-2.1A6.39,6.39,0,0,0,69.1,96.3Z"/><path class="cls-2" d="M97.5,92.3a24.11,24.11,0,0,0,6.7.9,24.63,24.63,0,0,0,6.7-.9,13.93,13.93,0,0,0,6.2-3.3,4.05,4.05,0,0,0,1.3-2.9c0-3.8-6.5-7.1-14.2-7.1S90,82.2,90,86.1A4.22,4.22,0,0,0,91.3,89,12.54,12.54,0,0,0,97.5,92.3Z"/><path class="cls-2" d="M117.1,103.8a4.05,4.05,0,0,0,1.3-2.9V98.5l-.1.1-.1.1-.2.2c-.1.1-.1.1-.2.1l-.2.2c-.1,0-.1.1-.2.1s-.2.1-.2.2a.1.1,0,0,0-.1.1c-.1.1-.2.1-.3.2a.1.1,0,0,0-.1.1c-.1.1-.3.2-.4.3l-.1.1c-.1.1-.2.1-.3.2s-.1.1-.2.1-.2.1-.3.2-.1.1-.2.1a.37.37,0,0,1-.3.1c-.1,0-.1.1-.2.1a.37.37,0,0,1-.3.1c-.1,0-.1.1-.2.1a.37.37,0,0,1-.3.1c-.1,0-.1.1-.2.1s-.2.1-.3.1-.1.1-.2.1-.2.1-.3.1-.1.1-.2.1-.2.1-.4.1-.1,0-.2.1-.4.1-.6.2a30.06,30.06,0,0,1-14.6,0c-.2-.1-.4-.1-.6-.2s-.1,0-.2-.1-.2-.1-.4-.1-.1-.1-.2-.1-.2-.1-.3-.1-.1-.1-.2-.1-.2-.1-.3-.1-.1-.1-.2-.1-.2-.1-.3-.1-.1-.1-.2-.1a.37.37,0,0,0-.3-.1c-.1,0-.1-.1-.2-.1a.37.37,0,0,0-.3-.1c-.1,0-.1-.1-.2-.1s-.2-.1-.3-.2-.1-.1-.2-.1-.2-.1-.3-.2l-.1-.1c-.1-.1-.3-.2-.4-.3a.1.1,0,0,1-.1-.1c-.1-.1-.2-.1-.3-.2a.1.1,0,0,1-.1-.1c-.1-.1-.2-.1-.2-.2a.1.1,0,0,1-.1-.1c-.1-.1-.2-.1-.2-.2a.1.1,0,0,1-.1-.1l-.2-.2-.1-.1-.1-.1v2.4a4.22,4.22,0,0,0,1.3,2.9,13,13,0,0,0,6.2,3.3,24.11,24.11,0,0,0,6.7.9,24.63,24.63,0,0,0,6.7-.9A15.64,15.64,0,0,0,117.1,103.8Z"/><path class="cls-2" d="M97.5,99.7a24.11,24.11,0,0,0,6.7.9,24.63,24.63,0,0,0,6.7-.9,13.93,13.93,0,0,0,6.2-3.3,4.05,4.05,0,0,0,1.3-2.9V91.1l-.1.1-.1.1-.2.2a.1.1,0,0,0-.1.1l-.2.2a.1.1,0,0,0-.1.1c-.1.1-.2.1-.2.2a.1.1,0,0,0-.1.1c-.1.1-.2.1-.3.2a.1.1,0,0,0-.1.1c-.1.1-.3.2-.4.3l-.1.1c-.1.1-.2.1-.3.2s-.1.1-.2.1-.2.1-.3.2-.1.1-.2.1a.37.37,0,0,1-.3.1c-.1,0-.1.1-.2.1a.37.37,0,0,1-.3.1c-.1,0-.1.1-.2.1s-.2.1-.3.1-.1.1-.2.1-.2.1-.3.1-.1.1-.2.1-.2.1-.3.1-.1.1-.2.1-.2.1-.4.1-.1,0-.2.1-.4.1-.6.2a30.06,30.06,0,0,1-14.6,0c-.2-.1-.4-.1-.6-.2s-.1,0-.2-.1-.2-.1-.4-.1-.1-.1-.2-.1-.2-.1-.3-.1-.1-.1-.2-.1-.2-.1-.3-.1-.1-.1-.2-.1-.2-.1-.3-.1-.1-.1-.2-.1a.37.37,0,0,0-.3-.1c-.1,0-.1-.1-.2-.1a.37.37,0,0,0-.3-.1c-.1,0-.1-.1-.2-.1a.37.37,0,0,0-.3-.1c-.1,0-.1-.1-.2-.1s-.2-.1-.3-.2a.1.1,0,0,1-.1-.1c-.1-.1-.3-.2-.4-.3a.1.1,0,0,1-.1-.1c-.1-.1-.2-.1-.3-.2a.1.1,0,0,1-.1-.1c-.1-.1-.2-.1-.2-.2a.1.1,0,0,1-.1-.1c-.1-.1-.2-.1-.2-.2a.1.1,0,0,1-.1-.1l-.2-.2-.1-.1-.1-.1v2.4a4.22,4.22,0,0,0,1.3,2.9C92.5,97.8,94.8,99,97.5,99.7Z"/></svg>