<svg id="Layer_1" data-name="Layer 1" xmlns="http://www.w3.org/2000/svg" viewBox="0 0 160 160"><defs><style>.cls-1{fill:#80027b;}.cls-2{fill:#b80eb2;}</style></defs><path class="cls-1" d="M80,21A60.1,60.1,0,1,1,19.9,81.1,60.15,60.15,0,0,1,80,21m0-6.7a66.8,66.8,0,1,0,66.8,66.8A66.79,66.79,0,0,0,80,14.3Z"/><path class="cls-2" d="M78.6,77.4l-4.1,2.7-1.9-1.3-9.1-6.1-2-1.3A11.66,11.66,0,0,0,65,68.3l1.8,1.2,9.8,6.6Z"/><path class="cls-2" d="M98.3,90.6a11.66,11.66,0,0,0-3.5,3.1L93,92.5l-9.8-6.6-1.9-1.3,4.1-2.7,1.9,1.3,9.1,6.1Z"/><path class="cls-2" d="M114.6,97.7l-.2-.5a11.45,11.45,0,0,0-3.8-4.9,11.16,11.16,0,0,0-6.2-2,10.57,10.57,0,0,0-4,.8A11.1,11.1,0,0,0,95.5,95a10.52,10.52,0,0,0-1.9,6.1,10.8,10.8,0,1,0,21.6,0A9.74,9.74,0,0,0,114.6,97.7Zm-4.4,2.8h1.4v1.4h-1.4Zm-13,0h1.4v1.4H97.2Zm7.9,10h-1.4v-2.9a3.59,3.59,0,0,1-3.6-3.6v-.7h1.4v.7a2.22,2.22,0,0,0,2.2,2.2h3.6V104a2.22,2.22,0,0,0-2.2-2.2h-1.4a3.59,3.59,0,0,1-3.6-3.6V94.6h3.6V91.7h1.4v2.9a3.59,3.59,0,0,1,3.6,3.6v.7h-1.4v-.7a2.22,2.22,0,0,0-2.2-2.2h-3.6v2.2a2.22,2.22,0,0,0,2.2,2.2h1.4a3.59,3.59,0,0,1,3.6,3.6v3.6h-3.6Z"/><path class="cls-2" d="M123.8,81a17.6,17.6,0,0,1-6.6,13.7,9.39,9.39,0,0,1-1.8,1.2,14.08,14.08,0,0,0-2.7-3.7c.6-.4,1.3-.8,1.8-1.2a12.74,12.74,0,0,0-7.8-22.7,12.5,12.5,0,0,0-7,2.1L84.6,80.6l-5.4,3.6L62.5,95.4A16.88,16.88,0,0,1,53,98.3,17.2,17.2,0,0,1,35.9,81a17.6,17.6,0,0,1,6.6-13.7,18.76,18.76,0,0,1,1.8-1.2A12.61,12.61,0,0,0,47,69.8L45.2,71A12.74,12.74,0,0,0,53,93.7a12.5,12.5,0,0,0,7-2.1L75.1,81.4l5.4-3.6L97.2,66.6a16.88,16.88,0,0,1,9.5-2.9A17.2,17.2,0,0,1,123.8,81Z"/><path class="cls-2" d="M45,63.5a5.64,5.64,0,0,0,.4,1.2l.2-.1A3.88,3.88,0,0,1,45,63.5Z"/><path class="cls-2" d="M55.4,50A10.76,10.76,0,0,0,44.6,60.8a12.41,12.41,0,0,0,.3,2.7h0a10.91,10.91,0,0,0,.6,1.1l-.2.1a10.88,10.88,0,0,0,10.1,6.8,11.5,11.5,0,0,0,4.1-.8,10.82,10.82,0,0,0,4.8-3.9,10.19,10.19,0,0,0,1.6-3.5A10.77,10.77,0,0,0,55.4,50Zm5.8,10.1h1.4v1.4H61.2ZM49.7,57.2h1.7a4.33,4.33,0,0,1,4.1-2.9,4.27,4.27,0,0,1,4.3,4.3v.7H58.4v-.7a2.9,2.9,0,0,0-2.9-2.9A2.94,2.94,0,0,0,53,57.1h2.5v1.4H52.6v4.3h2.9v1.4H53a2.74,2.74,0,0,0,2.5,1.4,2.9,2.9,0,0,0,2.9-2.9V62h1.4v.7A4.27,4.27,0,0,1,55.5,67a4.33,4.33,0,0,1-4.1-2.9H49.7V62.7h1.4V58.4H49.7Zm-1.5,2.9h1.4v1.4H48.2Z"/><path class="cls-2" d="M45.6,64.7l-.2.1a5.64,5.64,0,0,1-.4-1.2C45.1,63.9,45.4,64.3,45.6,64.7Z"/></svg>