<svg id="Layer_1" data-name="Layer 1" xmlns="http://www.w3.org/2000/svg" viewBox="0 0 1193.14 354.39"><defs><style>.cls-1{fill:#b80eb2;}.cls-2{fill:#fff;}</style></defs><path class="cls-1" d="M1035,77.24v176.3H445.49l-49.2,26.1a2,2,0,0,1-2.5-.5l-8.5-10.1,53.5-28.5H1021V91.24H436.09l-55.5-29.5,8-10.4a2,2,0,0,1,2.5-.6l50,26.5Z"/><path class="cls-1" d="M217.79,88.84v31.9l-35.4,45.7,35.4,42.3v29.7l-59.1-70.5a2.12,2.12,0,0,1-.1-2.7Z"/><path class="cls-1" d="M581.19,129a22.37,22.37,0,0,0-15.9-6.6h-52.7V206h14.9v-38.5h40v-.1h.7a18.55,18.55,0,0,0,6.5-1.8,22.73,22.73,0,0,0,6.5-36.6Zm-12.6,23a6.7,6.7,0,0,1-3.1.7h-37.9v-15.3h37.9a8,8,0,0,1,5.4,2.1,8.08,8.08,0,0,1,2.3,5.5,7.58,7.58,0,0,1-4.5,6.9v.1Z"/><path class="cls-1" d="M661.79,191.14a12,12,0,0,1-10.2-10.2v-58.4h-14.9v57a27.16,27.16,0,0,0,2.7,11.7,26.71,26.71,0,0,0,23.8,15h42.4v-14.9Z"/><path class="cls-1" d="M827.39,191.14l-35-68.7-35,68.7-7.6,14.9h16.7l7.6-14.9,18.3-35.9,18.3,35.9,7.6,14.9H835Z"/><path class="cls-1" d="M943.89,122.34,921,152.14l-22.9-29.8h-18.9l32.4,41.9,2,2.5v39.2h14.9v-39.4l1.8-2.3,32.4-41.9Zm-64.9,84,.2-.2H879Zm83.7,0v-.2h-.1Z"/><path class="cls-2" d="M390.39,190.74,341.79,102a17.35,17.35,0,0,0-30.5,0l-48.5,88.7c-8.6,15.7,9.4,32.6,24.6,23l30-18.9a17.37,17.37,0,0,1,18.6,0l30,18.9C381,223.34,399,206.44,390.39,190.74Zm-48.6-17-11.5-7.2a6.81,6.81,0,0,0-7.5,0l-11.5,7.2a3.76,3.76,0,0,1-5.3-5l17.2-31.5a3.78,3.78,0,0,1,5.1-1.5,4.31,4.31,0,0,1,1.5,1.5l17.2,31.5a3.71,3.71,0,0,1-5.2,5Z"/></svg>