<svg id="Layer_1" data-name="Layer 1" xmlns="http://www.w3.org/2000/svg" viewBox="0 0 160 160"><defs><style>.cls-1{fill:#80027b;}.cls-2{fill:#545454;}</style></defs><path class="cls-1" d="M80.3,23a60.1,60.1,0,1,1-60.1,60.1A60.15,60.15,0,0,1,80.3,23m0-6.7a66.8,66.8,0,1,0,66.8,66.8A66.79,66.79,0,0,0,80.3,16.25Z"/><path class="cls-2" d="M90.8,94l6.8-7.4V51.25H62.7v35.3L69.5,94l2.7-.6,8-14,8,14,2.6.6"/><path class="cls-2" d="M80.1,85.75l-5.9,10.4-11.7,2.5,8,8.9-1.3,11.9,10.9-4.9,10.9,4.9-1.3-11.9,8-8.9-11.6-2.5-6-10.4"/></svg>