<svg id="Layer_1" data-name="Layer 1" xmlns="http://www.w3.org/2000/svg" viewBox="0 0 160 160"><defs><style>.cls-1{fill:#80027b;}.cls-2{fill:#545454;fill-rule:evenodd;}</style></defs><path class="cls-1" d="M80,23a60.1,60.1,0,1,1-60.1,60.1A60.15,60.15,0,0,1,80,23m0-6.7a66.8,66.8,0,1,0,66.8,66.8A66.79,66.79,0,0,0,80,16.25Z"/><path class="cls-2" d="M109.5,76.05H50.3v25.1a11.39,11.39,0,0,0,11.4,11.4H98.2a11.39,11.39,0,0,0,11.4-11.4V76.05Zm-41.9,16,7.7,7.7a2.23,2.23,0,0,0,3.2,0L92.3,86l-3.2-3.2L76.9,95l-6.1-6.1ZM50.3,71.55h59.2v-6.8a11.39,11.39,0,0,0-11.4-11.4H61.6a11.39,11.39,0,0,0-11.4,11.4v6.8Zm41-9.1H68.5v4.6H91.3Z"/></svg>