<svg id="Layer_1" data-name="Layer 1" xmlns="http://www.w3.org/2000/svg" viewBox="0 0 483 483"><defs><style>.cls-1{fill:#80027b;}.cls-2{fill:#b80eb2;}</style></defs><path class="cls-1" d="M242.54,94.91c85.6,0,155.2,69.6,155.2,155.2s-69.6,155.2-155.2,155.2-155.2-69.6-155.2-155.2,69.5-155.2,155.2-155.2m0-17.2A172.5,172.5,0,1,0,415,250.21C415,154.91,337.74,77.71,242.54,77.71Z"/><path class="cls-2" d="M242.14,284.31a8.92,8.92,0,0,1,9,8.8v.3a8.9,8.9,0,1,1-17.8.2v-.3a9,9,0,0,1,8.8-9Zm.4-82.2a10.1,10.1,0,0,1,9.7,10.3v.3l-3.1,53.3a6.84,6.84,0,0,1-7.2,6.5,6.91,6.91,0,0,1-6.5-6.5l-3.1-53.3a10,10,0,0,1,9.4-10.5A2,2,0,0,1,242.54,202.11Zm-2.4-28.2a76.12,76.12,0,1,0,78.3,76.1v-.1a76.14,76.14,0,0,0-76-76.2,9.34,9.34,0,0,1-2.3.2"/></svg>