<svg id="Layer_1" data-name="Layer 1" xmlns="http://www.w3.org/2000/svg" viewBox="0 0 160 160"><defs><style>.cls-1{fill:#80027b;}.cls-2{fill:#b80eb2;}</style></defs><path class="cls-1" d="M80,18.7A60.1,60.1,0,1,1,19.9,78.8,60.15,60.15,0,0,1,80,18.7m0-6.6a66.8,66.8,0,1,0,66.8,66.8A66.79,66.79,0,0,0,80,12.1Z"/><path class="cls-2" d="M90.5,89.7l6.8-7.4V47H62.4V82.3l6.8,7.4,2.7-.6,8-14,8,14,2.6.6"/><path class="cls-2" d="M79.8,81.6,73.9,92,62.2,94.5l8,8.9-1.3,11.9,10.9-4.9,10.9,4.9-1.3-11.9,8-8.9L85.8,92l-6-10.4"/></svg>