<svg id="Layer_1" data-name="Layer 1" xmlns="http://www.w3.org/2000/svg" viewBox="0 0 160 160"><defs><style>.cls-1{fill:#80027b;}.cls-2{fill:#b80eb2;fill-rule:evenodd;}</style></defs><path class="cls-1" d="M80,18.7A60.1,60.1,0,1,1,19.9,78.8,60.15,60.15,0,0,1,80,18.7m0-6.6a66.8,66.8,0,1,0,66.8,66.8A66.79,66.79,0,0,0,80,12.1Z"/><path class="cls-2" d="M109.5,71.9H50.3V97a11.39,11.39,0,0,0,11.4,11.4H98.2A11.39,11.39,0,0,0,109.6,97V71.9ZM67.6,87.8l7.7,7.7a2.23,2.23,0,0,0,3.2,0L92.3,81.7l-3.2-3.2L76.9,90.7l-6.1-6.1ZM50.3,67.3h59.2V60.5A11.39,11.39,0,0,0,98.1,49.1H61.6A11.39,11.39,0,0,0,50.2,60.5v6.8Zm41-9.1H68.5v4.6H91.3Z"/></svg>