<svg id="Layer_1" data-name="Layer 1" xmlns="http://www.w3.org/2000/svg" viewBox="0 0 160 160"><defs><style>.cls-1{fill:#80027b;}.cls-2{fill:#545454;}</style></defs><path class="cls-1" d="M82,19.9A60.1,60.1,0,1,1,21.9,80,60.15,60.15,0,0,1,82,19.9m0-6.7A66.8,66.8,0,1,0,148.8,80,66.79,66.79,0,0,0,82,13.2Z"/><path class="cls-2" d="M68.9,61.4a4.22,4.22,0,0,0,1.3,2.9,13,13,0,0,0,6.2,3.3,24.11,24.11,0,0,0,6.7.9,24.63,24.63,0,0,0,6.7-.9A13.93,13.93,0,0,0,96,64.3a4.05,4.05,0,0,0,1.3-2.9V59l-.1.1-.1.1-.2.2a.1.1,0,0,0-.1.1c-.1.1-.2.1-.2.2a.1.1,0,0,0-.1.1c-.1.1-.2.1-.2.2a.1.1,0,0,0-.1.1c-.1.1-.2.2-.3.2a.1.1,0,0,0-.1.1c-.1.1-.3.2-.4.3a.1.1,0,0,0-.1.1c-.1.1-.2.1-.4.2s-.1.1-.2.1-.2.1-.3.2-.1.1-.2.1a.37.37,0,0,1-.3.1c-.1,0-.1.1-.2.1a.37.37,0,0,1-.3.1c-.1,0-.1.1-.2.1a.37.37,0,0,1-.3.1c-.1,0-.1.1-.2.1s-.2.1-.3.1-.1.1-.2.1-.2.1-.3.1-.1.1-.2.1-.2.1-.4.1-.1,0-.2.1-.4.1-.6.2a30.06,30.06,0,0,1-14.6,0c-.2-.1-.4-.1-.6-.2s-.1,0-.2-.1-.2-.1-.4-.1-.1-.1-.2-.1-.2-.1-.3-.1-.1-.1-.2-.1-.2-.1-.3-.1-.1-.1-.2-.1-.2-.1-.3-.1-.1-.1-.2-.1a.37.37,0,0,0-.3-.1c-.1,0-.1-.1-.2-.1a.37.37,0,0,0-.3-.1c-.1,0-.1-.1-.2-.1a.37.37,0,0,0-.3-.1c-.1,0-.1-.1-.2-.1s-.2-.1-.3-.2a.1.1,0,0,1-.1-.1c-.1-.1-.3-.2-.4-.3a.1.1,0,0,1-.1-.1c-.1-.1-.2-.1-.3-.2a.1.1,0,0,1-.1-.1c-.1-.1-.2-.1-.2-.2s-.1-.1-.2-.1l-.2-.2-.1-.1-.2-.2-.1-.1-.1-.1-.2,2.3Z"/><path class="cls-2" d="M76.4,60.2a24.11,24.11,0,0,0,6.7.9,24.63,24.63,0,0,0,6.7-.9A13.93,13.93,0,0,0,96,56.9,4.05,4.05,0,0,0,97.3,54c0-3.8-6.5-7.1-14.2-7.1S68.9,50.1,68.9,54a4.22,4.22,0,0,0,1.3,2.9A13.93,13.93,0,0,0,76.4,60.2Z"/><path class="cls-2" d="M74.8,79.8v2c.1,0,.1,0,.1.1.2.1.3.1.5.2s.1.1.2.1a1.85,1.85,0,0,0,.7.2h.1a23.6,23.6,0,0,0,6.7.9,24.63,24.63,0,0,0,6.7-.9h.1a13.63,13.63,0,0,0,4.7-2.1,9.83,9.83,0,0,0,1.5-1.2,4.05,4.05,0,0,0,1.3-2.9V73.8l-.1.1-.2.2c-.1.1-.1.1-.2.1l-.2.2c-.1.1-.1.1-.2.1s-.1.1-.2.1-.1.1-.2.1-.1.1-.2.1-.1.1-.2.1a.76.76,0,0,1-.4.2c-.1.1-.1.1-.2.1a.31.31,0,0,1-.2.1c-.1,0-.1.1-.2.1a.31.31,0,0,1-.2.1c-.1,0-.1.1-.2.1a.31.31,0,0,1-.2.1l-.2.1a.35.35,0,0,0-.2.1l-.2.1a.35.35,0,0,0-.2.1c-.1,0-.2.1-.3.1a.35.35,0,0,0-.2.1c-.1,0-.2.1-.3.1a.35.35,0,0,0-.2.1c-.1,0-.2.1-.3.1s-.1.1-.2.1a.6.6,0,0,1-.4.1h-.1c-.2.1-.4.1-.6.2l-1.3.3a27,27,0,0,1-4.1.6c-.6,0-1.3.1-1.9.1a12.1,12.1,0,0,1-1.9-.1c-1.4-.1-2.7-.3-4-.5l-1.4-.3H76a2.35,2.35,0,0,0-.8-.2c-.1,0-.1,0-.2-.1-.3-.1-.5-.2-.8-.3h-.1A10.87,10.87,0,0,1,74.8,79.8Z"/><path class="cls-2" d="M97.3,66.4l-.1.1-.1.1-.2.2-.1.1-.2.2c-.1,0-.1.1-.2.1s-.2.1-.2.2a.1.1,0,0,0-.1.1c-.1.1-.2.1-.3.2l-.1.1c-.1.1-.3.2-.4.3l-.1.1c-.1.1-.2.1-.3.2s-.1.1-.2.1-.2.1-.3.2-.1.1-.2.1a.37.37,0,0,1-.3.1c-.1,0-.1.1-.2.1a.37.37,0,0,1-.3.1c-.1,0-.1.1-.2.1a.37.37,0,0,1-.3.1c-.1,0-.1.1-.2.1s-.2.1-.3.1-.1.1-.2.1-.2.1-.3.1-.1.1-.2.1-.2.1-.4.1-.1,0-.2.1-.4.1-.6.2a30.06,30.06,0,0,1-14.6,0c-.2-.1-.4-.1-.6-.2s-.1,0-.2-.1-.2-.1-.4-.1-.1-.1-.2-.1-.2-.1-.3-.1-.1-.1-.2-.1-.2-.1-.3-.1-.1-.1-.2-.1-.2-.1-.3-.1-.1-.1-.2-.1a.37.37,0,0,0-.3-.1c-.1,0-.1-.1-.2-.1a.37.37,0,0,0-.3-.1c-.1,0-.1-.1-.2-.1a.37.37,0,0,0-.3-.1c-.1,0-.1-.1-.2-.1s-.2-.1-.3-.2a.1.1,0,0,1-.1-.1c-.1-.1-.3-.2-.4-.3l-.1-.1c-.1-.1-.2-.1-.3-.2s-.1-.1-.2-.1-.2-.1-.2-.2-.1-.1-.2-.1l-.2-.2c-.1-.1-.1-.1-.2-.1l-.2-.2-.1-.1-.1-.1v2.4a3.16,3.16,0,0,0,.8,2.2c.2.2.3.5.5.7a11.61,11.61,0,0,0,4.9,2.9,6.47,6.47,0,0,0,1.3.4l1.3.3c1.1.2,2.3.4,3.5.5.6,0,1.2.1,1.9.1a12.1,12.1,0,0,0,1.9-.1,29.09,29.09,0,0,0,3.1-.4h.2a8.33,8.33,0,0,0,1.5-.4l1.8-.6a11.57,11.57,0,0,0,4.5-2.8c.2-.2.3-.4.5-.6a4.26,4.26,0,0,0,.8-2.3l-.1-2.4Z"/><path class="cls-2" d="M89.5,92.3c-.3.1-.5.1-.8.2-.1,0-.2,0-.2.1-.2,0-.4.1-.6.1a.37.37,0,0,0-.3.1,4.33,4.33,0,0,0-.5.1.76.76,0,0,0-.4.1c-.2,0-.3.1-.5.1h-.4a.75.75,0,0,0-.5.1H83.1a28.63,28.63,0,0,1-7.3-.9l-.9-.3h-.1v4.8c.1,0,.1,0,.1.1.2.1.4.1.5.2s.1.1.2.1a1.88,1.88,0,0,0,.8.2,24.11,24.11,0,0,0,6.7.9h3a.9.9,0,0,0,.5-.1.76.76,0,0,0,.4-.1c.2,0,.3-.1.5-.1s.2-.1.4-.1.3-.1.4-.1.2-.1.3-.1.3-.1.4-.1.2-.1.4-.1.2-.1.3-.1V92.3Z"/><path class="cls-2" d="M74.8,89.2c.1,0,.1,0,.1.1.2.1.3.1.5.2s.1.1.2.1a1.88,1.88,0,0,0,.8.2,24.11,24.11,0,0,0,6.7.9h3a.9.9,0,0,0,.5-.1.76.76,0,0,0,.4-.1c.2,0,.3-.1.5-.1s.2-.1.3-.1.3-.1.4-.1.2-.1.3-.1.3-.1.4-.1.2-.1.3-.1.2-.1.3-.1V87.2a6.87,6.87,0,0,1,.5-2.4c-.1,0-.2.1-.3.1s-.3.1-.4.1-.3.1-.5.1-.3.1-.4.1-.3.1-.5.1-.3.1-.4.1-.3.1-.5.1a.6.6,0,0,0-.4.1.9.9,0,0,0-.5.1,9.69,9.69,0,0,1-.9.2H83a28.63,28.63,0,0,1-7.3-.9h0l-.9-.3h-.1l.1,4.5Z"/><path class="cls-2" d="M90,104.5a5.34,5.34,0,0,1-.5-2.5V99.7c-.3.1-.5.1-.8.2-.1,0-.2,0-.2.1-.2,0-.4.1-.6.1a.37.37,0,0,0-.3.1,4.33,4.33,0,0,0-.5.1.76.76,0,0,0-.4.1c-.2,0-.3.1-.5.1h-.3a.75.75,0,0,0-.5.1H83.2a28.63,28.63,0,0,1-7.3-.9l-.9-.3h-.1v2.8a6.28,6.28,0,0,1-.3,1.9,23.52,23.52,0,0,0,8.6,1.5A37.13,37.13,0,0,0,90,104.5Z"/><path class="cls-2" d="M45.2,82.7A13,13,0,0,0,51.4,86a24.11,24.11,0,0,0,6.7.9c.9,0,1.8-.1,2.6-.1a27,27,0,0,0,4.1-.7,18.52,18.52,0,0,0,4-1.6A9.84,9.84,0,0,0,71,82.8a4.05,4.05,0,0,0,1.3-2.9c0-3.8-6.5-7.1-14.2-7.1S43.9,76,43.9,79.9v.4A5.71,5.71,0,0,0,45.2,82.7Z"/><path class="cls-2" d="M71.9,100c-.1.1-.1.1-.2.1l-.2.2c-.1,0-.1.1-.2.1s-.2.1-.2.2a.1.1,0,0,0-.1.1c-.1.1-.2.1-.3.2a.1.1,0,0,0-.1.1c-.1.1-.3.2-.4.3a.1.1,0,0,0-.1.1c-.1.1-.2.1-.3.2s-.1.1-.2.1-.2.1-.3.2-.1.1-.2.1a.37.37,0,0,1-.3.1c-.1,0-.1.1-.2.1a.37.37,0,0,1-.3.1c-.1,0-.1.1-.2.1a.37.37,0,0,1-.3.1c-.1,0-.1.1-.2.1s-.2.1-.3.1-.1.1-.2.1-.2.1-.3.1-.1.1-.2.1-.2.1-.4.1-.1,0-.2.1-.4.1-.6.2a30.06,30.06,0,0,1-14.6,0c-.2-.1-.4-.1-.6-.2s-.1,0-.2-.1-.2-.1-.3-.1-.1-.1-.2-.1-.2-.1-.3-.1a.35.35,0,0,1-.2-.1c-.1,0-.2-.1-.3-.1a.35.35,0,0,1-.2-.1c-.1,0-.2-.1-.3-.1s-.1-.1-.2-.1a.37.37,0,0,0-.3-.1c-.1,0-.1-.1-.2-.1a.37.37,0,0,0-.3-.1c-.1,0-.1-.1-.2-.1a.37.37,0,0,0-.3-.1c-.1,0-.1-.1-.2-.1s-.2-.1-.3-.2a.1.1,0,0,1-.1-.1c-.1-.1-.3-.2-.4-.3a.1.1,0,0,1-.1-.1c-.1-.1-.2-.1-.3-.2a.1.1,0,0,1-.1-.1c-.1-.1-.2-.1-.2-.2s-.1-.1-.2-.1l-.2-.2c-.1-.1-.1-.1-.2-.1l-.2-.2-.1-.1-.1-.1v2.4a4.22,4.22,0,0,0,1.3,2.9,13,13,0,0,0,6.2,3.3h.1a23.6,23.6,0,0,0,6.7.9,24.63,24.63,0,0,0,6.7-.9h.1a13,13,0,0,0,6.2-3.3,4.05,4.05,0,0,0,1.3-2.9V99.7l-.1.1-.1.1C72,99.9,72,100,71.9,100Z"/><path class="cls-2" d="M43.9,87.2a4.22,4.22,0,0,0,1.3,2.9,13,13,0,0,0,6.2,3.3,24.11,24.11,0,0,0,6.7.9c.9,0,1.8-.1,2.6-.1a27,27,0,0,0,4.1-.7,15.14,15.14,0,0,0,4.8-2.1,6.39,6.39,0,0,0,1.5-1.3,4.05,4.05,0,0,0,1.3-2.9V84.8l-.1.1-.1.1-.2.2a.1.1,0,0,0-.1.1l-.2.2a.1.1,0,0,0-.1.1c-.1.1-.2.1-.2.2a.1.1,0,0,0-.1.1c-.1.1-.2.1-.3.2a.1.1,0,0,0-.1.1c-.1.1-.3.2-.4.3l-.1.1c-.1.1-.2.1-.3.2s-.1.1-.2.1-.2.1-.3.2-.1.1-.2.1a.37.37,0,0,1-.3.1c-.1,0-.1.1-.2.1a.37.37,0,0,1-.3.1c-.1,0-.1.1-.2.1s-.2.1-.3.1-.1.1-.2.1-.2.1-.3.1-.1.1-.2.1-.2.1-.3.1-.1.1-.2.1-.2.1-.4.1-.1,0-.2.1-.4.1-.6.2a30.06,30.06,0,0,1-14.6,0c-.2-.1-.4-.1-.6-.2s-.1,0-.2-.1-.2-.1-.4-.1-.1-.1-.2-.1-.2-.1-.3-.1-.1-.1-.2-.1-.2-.1-.3-.1-.1-.1-.2-.1-.2-.1-.3-.1-.1-.1-.2-.1a.37.37,0,0,0-.3-.1c-.1,0-.1-.1-.2-.1a.37.37,0,0,0-.3-.1c-.1,0-.1-.1-.2-.1s-.2-.1-.3-.2-.1-.1-.2-.1-.2-.1-.3-.2l-.1-.1c-.1-.1-.3-.2-.4-.3a.1.1,0,0,1-.1-.1c-.1-.1-.2-.1-.3-.2a.1.1,0,0,1-.1-.1c-.1-.1-.2-.1-.2-.2a.1.1,0,0,1-.1-.1l-.2-.2c-.1-.1-.1-.1-.2-.1l-.2-.2-.1-.1-.1-.1-.4,2.4Z"/><path class="cls-2" d="M71.1,97.5a4.05,4.05,0,0,0,1.3-2.9V92.2l-.1.1-.1.1-.2.2c-.1.1-.1.1-.2.1l-.2.2c-.1,0-.1.1-.2.1s-.2.1-.2.2a.1.1,0,0,0-.1.1c-.1.1-.2.1-.3.2a.1.1,0,0,0-.1.1c-.1.1-.3.2-.4.3a.1.1,0,0,0-.1.1c-.1.1-.2.1-.3.2s-.1.1-.2.1-.2.1-.3.2-.1.1-.2.1a.37.37,0,0,1-.3.1c-.1,0-.1.1-.2.1a.37.37,0,0,1-.3.1c-.1,0-.1.1-.2.1a.37.37,0,0,1-.3.1c-.1,0-.1.1-.2.1s-.2.1-.3.1-.1.1-.2.1-.2.1-.3.1-.1.1-.2.1-.2.1-.4.1-.1,0-.2.1-.4.1-.6.2a30.06,30.06,0,0,1-14.6,0c-.2-.1-.4-.1-.6-.2s-.1,0-.2-.1-.2-.1-.4-.1-.1-.1-.2-.1-.2-.1-.3-.1-.1-.1-.2-.1-.2-.1-.3-.1-.1-.1-.2-.1-.2-.1-.3-.1-.1-.1-.2-.1a.37.37,0,0,0-.3-.1c-.1,0-.1-.1-.2-.1a.37.37,0,0,0-.3-.1c-.1,0-.1-.1-.2-.1s-.2-.1-.3-.2-.1-.1-.2-.1-.2-.1-.3-.2a.1.1,0,0,1-.1-.1c-.1-.1-.3-.2-.4-.3l-.1-.1c-.1-.1-.2-.1-.3-.2a.1.1,0,0,1-.1-.1c-.1-.1-.2-.1-.2-.2s-.1-.1-.2-.1l-.2-.2c-.1-.1-.1-.1-.2-.1s-.1-.1-.2-.2-.1-.1-.2-.1l-.1-.1v2.4a4.22,4.22,0,0,0,1.3,2.9,13,13,0,0,0,6.2,3.3,24.11,24.11,0,0,0,6.7.9c.9,0,1.8-.1,2.6-.1a27,27,0,0,0,4.1-.7,15.14,15.14,0,0,0,4.8-2.1A6.39,6.39,0,0,0,71.1,97.5Z"/><path class="cls-2" d="M99.5,93.4a24.11,24.11,0,0,0,6.7.9,24.63,24.63,0,0,0,6.7-.9,13.93,13.93,0,0,0,6.2-3.3,4.05,4.05,0,0,0,1.3-2.9c0-3.8-6.5-7.1-14.2-7.1S92,83.3,92,87.2a4.22,4.22,0,0,0,1.3,2.9A12.54,12.54,0,0,0,99.5,93.4Z"/><path class="cls-2" d="M119.1,104.9a4.05,4.05,0,0,0,1.3-2.9V99.6l-.1.1-.1.1-.2.2c-.1.1-.1.1-.2.1l-.2.2c-.1,0-.1.1-.2.1s-.2.1-.2.2a.1.1,0,0,0-.1.1c-.1.1-.2.1-.3.2a.1.1,0,0,0-.1.1c-.1.1-.3.2-.4.3l-.1.1c-.1.1-.2.1-.3.2s-.1.1-.2.1-.2.1-.3.2-.1.1-.2.1a.37.37,0,0,1-.3.1c-.1,0-.1.1-.2.1a.37.37,0,0,1-.3.1c-.1,0-.1.1-.2.1a.37.37,0,0,1-.3.1c-.1,0-.1.1-.2.1s-.2.1-.3.1-.1.1-.2.1-.2.1-.3.1-.1.1-.2.1-.2.1-.4.1-.1,0-.2.1-.4.1-.6.2a30.06,30.06,0,0,1-14.6,0c-.2-.1-.4-.1-.6-.2s-.1,0-.2-.1-.2-.1-.4-.1-.1-.1-.2-.1-.2-.1-.3-.1-.1-.1-.2-.1-.2-.1-.3-.1-.1-.1-.2-.1-.2-.1-.3-.1-.1-.1-.2-.1a.37.37,0,0,0-.3-.1c-.1,0-.1-.1-.2-.1a.37.37,0,0,0-.3-.1c-.1,0-.1-.1-.2-.1s-.2-.1-.3-.2-.1-.1-.2-.1-.2-.1-.3-.2l-.1-.1c-.1-.1-.3-.2-.4-.3a.1.1,0,0,1-.1-.1c-.1-.1-.2-.1-.3-.2a.1.1,0,0,1-.1-.1c-.1-.1-.2-.1-.2-.2a.1.1,0,0,1-.1-.1c-.1-.1-.2-.1-.2-.2a.1.1,0,0,1-.1-.1l-.2-.2-.1-.1-.1-.1V102a4.22,4.22,0,0,0,1.3,2.9,13,13,0,0,0,6.2,3.3,24.11,24.11,0,0,0,6.7.9,24.63,24.63,0,0,0,6.7-.9A14.43,14.43,0,0,0,119.1,104.9Z"/><path class="cls-2" d="M99.5,100.9a24.11,24.11,0,0,0,6.7.9,24.63,24.63,0,0,0,6.7-.9,13.93,13.93,0,0,0,6.2-3.3,4.05,4.05,0,0,0,1.3-2.9V92.3l-.1.1-.1.1-.2.2a.1.1,0,0,0-.1.1l-.2.2a.1.1,0,0,0-.1.1c-.1.1-.2.1-.2.2a.1.1,0,0,0-.1.1c-.1.1-.2.1-.3.2a.1.1,0,0,0-.1.1c-.1.1-.3.2-.4.3l-.1.1c-.1.1-.2.1-.3.2s-.1.1-.2.1-.2.1-.3.2-.1.1-.2.1a.37.37,0,0,1-.3.1c-.1,0-.1.1-.2.1a.37.37,0,0,1-.3.1c-.1,0-.1.1-.2.1s-.2.1-.3.1-.1.1-.2.1-.2.1-.3.1-.1.1-.2.1-.2.1-.3.1-.1.1-.2.1-.2.1-.4.1-.1,0-.2.1-.4.1-.6.2a30.06,30.06,0,0,1-14.6,0c-.2-.1-.4-.1-.6-.2s-.1,0-.2-.1-.2-.1-.4-.1-.1-.1-.2-.1-.2-.1-.3-.1-.1-.1-.2-.1-.2-.1-.3-.1-.1-.1-.2-.1-.2-.1-.3-.1-.1-.1-.2-.1a.37.37,0,0,0-.3-.1c-.1,0-.1-.1-.2-.1a.37.37,0,0,0-.3-.1c-.1,0-.1-.1-.2-.1a.37.37,0,0,0-.3-.1c-.1,0-.1-.1-.2-.1s-.2-.1-.3-.2a.1.1,0,0,1-.1-.1c-.1-.1-.3-.2-.4-.3a.1.1,0,0,1-.1-.1c-.1-.1-.2-.1-.3-.2a.1.1,0,0,1-.1-.1c-.1-.1-.2-.1-.2-.2a.1.1,0,0,1-.1-.1c-.1-.1-.2-.1-.2-.2a.1.1,0,0,1-.1-.1l-.2-.2-.1-.1-.1-.1v2.4a4.22,4.22,0,0,0,1.3,2.9C94.5,98.9,96.8,100.1,99.5,100.9Z"/></svg>