<svg id="Layer_1" data-name="Layer 1" xmlns="http://www.w3.org/2000/svg" viewBox="0 0 483 483"><defs><style>.cls-1{fill:#80027b;}.cls-2{fill:#545454;}</style></defs><path class="cls-1" d="M241.5,98.57c85.7,0,155.5,69.7,155.5,155.5s-69.7,155.4-155.5,155.4S86,339.77,86,254s69.8-155.4,155.5-155.4m0-17.3A172.78,172.78,0,0,0,68.7,254.07c0,95.5,77.4,172.7,172.8,172.7a172.75,172.75,0,1,0,0-345.5Z"/><path class="cls-2" d="M241.9,289.27a8.9,8.9,0,0,1,9.1,8.9v.3a9.05,9.05,0,1,1-18.1.3v-.3a9.27,9.27,0,0,1,9-9.2Zm.5-83.2a10.08,10.08,0,0,1,9.8,10.4v.3l-3.1,54a7,7,0,0,1-13.9,0l-3.1-54a10.09,10.09,0,0,1,9.5-10.7A1.07,1.07,0,0,1,242.4,206.07Zm-2.5-28.6a77.12,77.12,0,1,0,79.3,77.1v-.1a77.08,77.08,0,0,0-77-77.2,9.34,9.34,0,0,1-2.3.2"/></svg>