<svg id="Layer_1" data-name="Layer 1" xmlns="http://www.w3.org/2000/svg" viewBox="0 0 160 160"><defs><style>.cls-1{fill:#80027b;}.cls-2{fill:#545454;}</style></defs><path class="cls-1" d="M80,19.8A60.1,60.1,0,1,1,19.9,79.9,60.15,60.15,0,0,1,80,19.8m0-6.6A66.8,66.8,0,1,0,146.8,80,66.79,66.79,0,0,0,80,13.2Z"/><path class="cls-2" d="M55.4,48.9A10.76,10.76,0,0,0,44.6,59.7a12.41,12.41,0,0,0,.3,2.7h0a10.91,10.91,0,0,0,.6,1.1l-.2.1a10.88,10.88,0,0,0,10.1,6.8,11.5,11.5,0,0,0,4.1-.8,10.82,10.82,0,0,0,4.8-3.9,10.19,10.19,0,0,0,1.6-3.5,10.9,10.9,0,0,0,.3-2.6A10.73,10.73,0,0,0,55.4,48.9ZM61.2,59h1.4v1.4H61.2ZM49.7,56.1h1.7a4.33,4.33,0,0,1,4.1-2.9,4.27,4.27,0,0,1,4.3,4.3v.7H58.4v-.7a2.9,2.9,0,0,0-2.9-2.9A2.94,2.94,0,0,0,53,56h2.5v1.4H52.6v4.3h2.9v1.4H53a2.74,2.74,0,0,0,2.5,1.4,2.9,2.9,0,0,0,2.9-2.9v-.7h1.4v.7a4.27,4.27,0,0,1-4.3,4.3A4.33,4.33,0,0,1,51.4,63H49.7V61.6h1.4V57.3H49.7ZM48.2,59h1.4v1.4H48.2Z"/><path class="cls-2" d="M78.6,76.3,74.5,79l-1.9-1.3-9.1-6.1-2-1.3A11.66,11.66,0,0,0,65,67.2l1.8,1.2L76.6,75Z"/><path class="cls-2" d="M98.3,89.5a11.66,11.66,0,0,0-3.5,3.1L93,91.4l-9.8-6.6-1.9-1.3,4.1-2.7,1.9,1.3,9.1,6.1Z"/><path class="cls-2" d="M123.8,79.8a17.6,17.6,0,0,1-6.6,13.7,9.39,9.39,0,0,1-1.8,1.2,14.08,14.08,0,0,0-2.7-3.7,14,14,0,0,0,1.8-1.2,12.74,12.74,0,0,0-7.8-22.7,12.5,12.5,0,0,0-7,2.1L84.6,79.4,79.2,83,62.5,94.2A16.88,16.88,0,0,1,53,97.1,17.18,17.18,0,0,1,35.9,79.9a17.6,17.6,0,0,1,6.6-13.7A9.39,9.39,0,0,1,44.3,65,14.08,14.08,0,0,0,47,68.7a18.76,18.76,0,0,0-1.8,1.2A12.74,12.74,0,0,0,53,92.6a12.5,12.5,0,0,0,7-2.1L75.1,80.4l5.4-3.6L97.2,65.6a17.08,17.08,0,0,1,26.6,14.2Z"/><path class="cls-2" d="M45,62.4l.4,1.3.2-.1A3.38,3.38,0,0,1,45,62.4Z"/><path class="cls-2" d="M45.6,63.5l-.2.1L45,62.3A2.28,2.28,0,0,0,45.6,63.5Z"/><path class="cls-2" d="M114.4,96.1a10.89,10.89,0,0,0-3.8-4.9,11.16,11.16,0,0,0-6.2-2,11.5,11.5,0,0,0-4.1.8,11.1,11.1,0,0,0-4.9,3.9,10.52,10.52,0,0,0-1.9,6.1,10.8,10.8,0,1,0,21.6,0A8.48,8.48,0,0,0,114.4,96.1Zm-15.8,4.7H97.2V99.4h1.4Zm10.1-2.9h-1.4v-.7a2.22,2.22,0,0,0-2.2-2.2h-3.6v2.2a2.22,2.22,0,0,0,2.2,2.2h1.4a3.59,3.59,0,0,1,3.6,3.6v3.6h-3.6v2.9h-1.4v-2.9a3.59,3.59,0,0,1-3.6-3.6v-.7h1.4v.7a2.22,2.22,0,0,0,2.2,2.2h3.6V103a2.22,2.22,0,0,0-2.2-2.2h-1.4a3.59,3.59,0,0,1-3.6-3.6V93.6h3.6V90.7h1.4v2.9a3.59,3.59,0,0,1,3.6,3.6Zm2.9,2.9h-1.4V99.4h1.4Z"/></svg>