<svg id="Layer_1" data-name="Layer 1" xmlns="http://www.w3.org/2000/svg" viewBox="0 0 254.33 56"><defs><style>.cls-1{fill:#b80eb2;}.cls-2{fill:none;stroke:#121212;stroke-width:1.02px;}.cls-3{fill:#121212;}</style></defs><path class="cls-1" d="M251.84,56H2.49A2.48,2.48,0,0,1,0,53.52v-51A2.48,2.48,0,0,1,2.49,0H251.84a2.49,2.49,0,0,1,2.49,2.48v51A2.49,2.49,0,0,1,251.84,56"/><path class="cls-2" d="M0,6.69H254.33"/><path class="cls-2" d="M0,48.63H254.33"/><path class="cls-3" d="M18.89,22.33h7.93V19.49H18.89a7.94,7.94,0,0,0,0,15.87h7.93V32.52H18.89a5.1,5.1,0,1,1,0-10.19Z"/><path class="cls-3" d="M35.9,19.49a7.94,7.94,0,1,0,7.94,7.93A7.94,7.94,0,0,0,35.9,19.49Zm0,13a5.1,5.1,0,1,1,5.1-5.1A5.09,5.09,0,0,1,35.9,32.52Z"/><path class="cls-3" d="M58,19.49V29.6l-10.2-7.86L45,19.56V35.38h2.83v-10L58,33.21l2.83,2.17V19.52Z"/><path class="cls-3" d="M75.91,19.49V29.6L65.72,21.74l-2.83-2.18V35.38h2.83v-10l10.19,7.87,2.84,2.17V19.52Z"/><path class="cls-3" d="M85.12,22.33H96.7V19.49H85.12a4.28,4.28,0,0,0-4.26,4.29v7.3a4.27,4.27,0,0,0,4.26,4.28H96.7V32.52H85.12a1.46,1.46,0,0,1-1.46-1.44v-3h10.2V25.25H83.66V23.78A1.47,1.47,0,0,1,85.12,22.33Z"/><path class="cls-3" d="M106.1,22.33H114V19.49H106.1a7.94,7.94,0,0,0,0,15.87H114V32.52H106.1a5.1,5.1,0,1,1,0-10.19Z"/><path class="cls-3" d="M115.73,19.52v2.83h6.5v13h2.83v-13h6.51V19.52Z"/><path class="cls-3" d="M162.64,19.49H159.7l-2.85,9.56-2.41-3.32-.45-.64-1.29-1.76-1.29,1.76-.46.64-2.4,3.32-2.86-9.56h-2.94l3.69,12.44,1,3.41,2.09-2.88,3.12-4.33,3.15,4.33,2.09,2.9,1-3.43Z"/><path class="cls-3" d="M178.19,32.52l-6.64-13-6.64,13-1.45,2.84h3.17l1.45-2.84,3.47-6.79L175,32.52l1.44,2.84h3.17Z"/><path class="cls-3" d="M185.18,32.52a2.24,2.24,0,0,1-1.92-1.92V19.52h-2.83V30.33a4.93,4.93,0,0,0,.52,2.22,5,5,0,0,0,2.29,2.31,4.89,4.89,0,0,0,2.21.52h8.05V32.55Z"/><path class="cls-3" d="M200,32.52A2.24,2.24,0,0,1,198,30.6V19.52H195.2V30.33a4.93,4.93,0,0,0,.52,2.22A5.07,5.07,0,0,0,198,34.86a4.9,4.9,0,0,0,2.22.52h8V32.55Z"/><path class="cls-3" d="M214.25,22.33h11.58V19.49H214.25A4.28,4.28,0,0,0,210,23.78v7.3a4.27,4.27,0,0,0,4.26,4.28h11.58V32.52H214.25a1.46,1.46,0,0,1-1.45-1.44v-3H223V25.25H212.8V23.78A1.46,1.46,0,0,1,214.25,22.33Z"/><path class="cls-3" d="M227.53,19.52v2.83H234v13h2.83v-13h6.51V19.52Z"/></svg>