<svg id="Layer_1" data-name="Layer 1" xmlns="http://www.w3.org/2000/svg" viewBox="0 0 156.98 56"><defs><style>.cls-1{fill:#b80eb2;}.cls-2{fill:none;stroke:#121212;stroke-width:1.01px;}.cls-3{fill:#121212;}</style></defs><path class="cls-1" d="M154.51,56H2.48A2.48,2.48,0,0,1,0,53.52v-51A2.48,2.48,0,0,1,2.48,0h152A2.47,2.47,0,0,1,157,2.48v51A2.47,2.47,0,0,1,154.51,56"/><path class="cls-2" d="M0,6.69H157"/><path class="cls-3" d="M33.26,19.49H30.32l-2.85,9.56-2.4-3.32-.46-.64-1.29-1.76L22,25.09l-.46.64-2.4,3.32-2.85-9.56h-3l3.7,12.44,1,3.41,2.09-2.88,3.13-4.33,3.15,4.33,2.08,2.9,1-3.43Z"/><path class="cls-3" d="M37.79,35.36V19.49H35V35.36Z"/><path class="cls-3" d="M39.5,19.52v2.83H46v13h2.83v-13h6.5V19.52Z"/><path class="cls-3" d="M70.08,19.49v5.76H59.88V19.49H57.05V35.36h2.83V28.08h10.2v7.28h2.83V19.49Z"/><path class="cls-3" d="M82.54,19.49H74.61V35.36h7.93A7.8,7.8,0,0,0,88.12,33c.15-.16.31-.31.45-.47a7.91,7.91,0,0,0-6-13Zm0,13.06h-5.1V22.35h5.1a5.1,5.1,0,1,1,0,10.2Z"/><path class="cls-3" d="M102.71,28a4,4,0,0,0,1.22-.34,4.3,4.3,0,0,0,2.49-3.9,4.25,4.25,0,0,0-1.24-3,4.31,4.31,0,0,0-3-1.24h-10V35.4H95V28.11h2.83a2.8,2.8,0,0,1,2.4,1.36l.07.13,1.52,3,1.45,2.83h3.17L105,32.57ZM95,25.29V22.37h7.18a1.43,1.43,0,0,1,1,.41,1.49,1.49,0,0,1,.43,1,1.45,1.45,0,0,1-.86,1.32,1.34,1.34,0,0,1-.59.13Z"/><path class="cls-3" d="M122,32.52l-6.63-13-6.65,13-1.44,2.84h3.17l1.45-2.84,3.47-6.79,3.46,6.79,1.45,2.84h3.17Z"/><path class="cls-3" d="M144.1,19.49h-2.95l-2.85,9.56-2.4-3.32-.46-.64-1.29-1.76-1.29,1.76-.46.64L130,29.05l-2.85-9.56h-2.94l3.69,12.44,1,3.41L131,32.46l3.13-4.33,3.15,4.33,2.08,2.9,1-3.43Z"/><path class="cls-2" d="M0,49.61l157,0"/></svg>